<mxfile host="app.diagrams.net" modified="2024-04-16T06:42:41.636Z" agent="Mozilla/5.0 (Macintosh; Intel Mac OS X 10.15; rv:121.0) Gecko/20100101 Firefox/121.0" etag="SHf7N9vi3Tt7V8y144WV" version="24.2.5" type="github">
  <diagram name="Page-1" id="2yi-G5gXUzbsjzBskEBy">
    <mxGraphModel dx="942" dy="558" grid="1" gridSize="10" guides="1" tooltips="1" connect="1" arrows="1" fold="1" page="1" pageScale="1" pageWidth="850" pageHeight="1100" math="0" shadow="0">
      <root>
        <mxCell id="0" />
        <mxCell id="1" parent="0" />
      </root>
    </mxGraphModel>
  </diagram>
</mxfile>
